<svg xmlns="http://www.w3.org/2000/svg" width="500" height="500" style="width:100%;height:100%;transform:translate3d(0,0,0);content-visibility:visible" viewBox="0 0 500 500"><defs><clipPath id="b"><path d="M0 0h500v500H0z"/></clipPath><mask id="c" mask-type="alpha"><use xmlns:ns1="http://www.w3.org/1999/xlink" ns1:href="#a"/></mask><g id="a" fill="#4AB3FC" style="display:block"><path d="M130.174 427.126c0-42.532 21.9-79.947 55.037-101.587 19.037-12.432 41.776-6.188 66.21-6.188 24.433 0 47.176-6.244 66.213 6.188 33.134 21.64 55.034 59.055 55.034 101.587H130.174z"/><path fill-opacity=".5" d="M-34.569 50.702c0-12.152 6.257-22.842 15.725-29.025 5.439-3.552 11.936-1.768 18.917-1.768 6.981 0 13.479-1.784 18.918 1.768 9.467 6.183 15.724 16.873 15.724 29.025h-69.284z" style="mix-blend-mode:multiply" transform="matrix(3.5 0 0 3.5 251.165 249.669)"/></g></defs><g clip-path="url(#b)"><path fill="#B16836" d="M-24.353-17.079v-10.224c0-12.903 10.46-23.363 23.363-23.363H.94c12.903 0 23.363 10.46 23.363 23.363v9.989" style="display:block" transform="translate(251.235 257.79) scale(3.7262)"/><g fill="#4AB3FC" style="display:block"><path d="M130.174 427.126c0-42.532 21.9-79.947 55.037-101.587 19.037-12.432 41.776-6.188 66.21-6.188 24.433 0 47.176-6.244 66.213 6.188 33.134 21.64 55.034 59.055 55.034 101.587H130.174z"/><path fill-opacity=".5" d="M-34.569 50.702c0-12.152 6.257-22.842 15.725-29.025 5.439-3.552 11.936-1.768 18.917-1.768 6.981 0 13.479-1.784 18.918 1.768 9.467 6.183 15.724 16.873 15.724 29.025h-69.284z" style="mix-blend-mode:multiply" transform="matrix(3.5 0 0 3.5 251.165 249.669)"/></g><g mask="url(#c)" style="display:block"><path fill="#4AB3FC" d="M173.675 427.126c0-42.532 21.9-79.947 55.038-101.587 19.036-12.432 40.278-15.187 64.711-15.187 24.434 0 48.675 2.755 67.711 15.187 33.135 21.64 55.034 59.055 55.034 101.587H173.675z"/></g><path fill="#F8C8C0" d="M23.202-3.161h2.818a6.184 6.184 0 1 0 0-12.369h-2.818" style="display:block" transform="translate(244.902 251.78) scale(3.7262)"/><path fill="#F8C8C0" d="m-22.662-3.154-3.271-.007a6.184 6.184 0 1 1 0-12.369h2.818s18.068-1.386 30.329-18.519l.005.001a23.005 23.005 0 0 1 9.208 5.639 23.064 23.064 0 0 1 6.771 16.361v7.916c0 12.777-10.354 23.131-23.131 23.131-12.763 0-23.117-10.354-23.117-23.131v-7.916c0-1.19.089-2.364.265-3.51" style="display:block" transform="translate(252.174 251.368) scale(3.7262)"/><g class="com" style="display:none"><path/><path/><path/><path/><path/><path/><path/><path/><path/><path/><path/><path/></g></g></svg>